<svg width="200" height="32" viewBox="0 0 200 32" fill="none" xmlns="http://www.w3.org/2000/svg">
<g filter="url(#filter0_d_264_131)">
<path d="M35.7102 9.99006V7.45455H47.6562V9.99006H43.2031V22H40.1634V9.99006H35.7102ZM50.1847 26.0909C49.8011 26.0909 49.4413 26.0601 49.1051 25.9986C48.7737 25.9418 48.4991 25.8684 48.2812 25.7784L48.9631 23.5199C49.3182 23.6288 49.6378 23.688 49.9219 23.6974C50.2107 23.7069 50.4593 23.6406 50.6676 23.4986C50.8807 23.3565 51.0535 23.1151 51.1861 22.7741L51.3636 22.3125L47.4503 11.0909H50.6321L52.8906 19.1023H53.0043L55.2841 11.0909H58.4872L54.2472 23.179C54.0436 23.7661 53.7666 24.2775 53.4162 24.7131C53.0705 25.1534 52.6326 25.492 52.1023 25.7287C51.572 25.9702 50.9328 26.0909 50.1847 26.0909ZM60.0355 26.0909V11.0909H63.0185V12.9233H63.1534C63.286 12.6297 63.4777 12.3314 63.7287 12.0284C63.9844 11.7206 64.3158 11.465 64.723 11.2614C65.1349 11.053 65.6463 10.9489 66.2571 10.9489C67.0526 10.9489 67.7865 11.1572 68.4588 11.5739C69.1312 11.9858 69.6686 12.6084 70.071 13.4418C70.4735 14.2704 70.6747 15.3097 70.6747 16.5597C70.6747 17.7765 70.4782 18.804 70.0852 19.642C69.697 20.4754 69.1667 21.1075 68.4943 21.5384C67.8267 21.9645 67.0786 22.1776 66.25 22.1776C65.6629 22.1776 65.1634 22.0805 64.7514 21.8864C64.3442 21.6922 64.0104 21.4484 63.75 21.1548C63.4896 20.8565 63.2907 20.5559 63.1534 20.2528H63.0611V26.0909H60.0355ZM62.9972 16.5455C62.9972 17.1941 63.0871 17.7599 63.267 18.2429C63.447 18.7259 63.7074 19.1023 64.0483 19.3722C64.3892 19.6373 64.8035 19.7699 65.2912 19.7699C65.7836 19.7699 66.2003 19.6349 66.5412 19.3651C66.8821 19.0904 67.1402 18.7116 67.3153 18.2287C67.4953 17.741 67.5852 17.1799 67.5852 16.5455C67.5852 15.9157 67.4976 15.3617 67.3224 14.8835C67.1473 14.4053 66.8892 14.0312 66.5483 13.7614C66.2074 13.4915 65.7884 13.3565 65.2912 13.3565C64.7988 13.3565 64.3821 13.4867 64.0412 13.7472C63.705 14.0076 63.447 14.3769 63.267 14.8551C63.0871 15.3333 62.9972 15.8968 62.9972 16.5455ZM77.6634 22.2131C76.5412 22.2131 75.5753 21.9858 74.7656 21.5312C73.9607 21.072 73.3404 20.4233 72.9048 19.5852C72.4692 18.7424 72.2514 17.7457 72.2514 16.5952C72.2514 15.473 72.4692 14.4882 72.9048 13.6406C73.3404 12.7931 73.9536 12.1326 74.7443 11.6591C75.5398 11.1856 76.4725 10.9489 77.5426 10.9489C78.2623 10.9489 78.9323 11.0649 79.5526 11.2969C80.1776 11.5241 80.7221 11.8674 81.1861 12.3267C81.6548 12.786 82.0194 13.3636 82.2798 14.0597C82.5402 14.7509 82.6705 15.5606 82.6705 16.4886V17.3196H73.4588V15.4446H79.8224C79.8224 15.009 79.7277 14.6231 79.5384 14.2869C79.349 13.9508 79.0862 13.688 78.75 13.4986C78.4186 13.3045 78.0327 13.2074 77.5923 13.2074C77.133 13.2074 76.7259 13.3139 76.3707 13.527C76.0204 13.7353 75.7457 14.017 75.5469 14.3722C75.348 14.7225 75.2462 15.1132 75.2415 15.544V17.3267C75.2415 17.8665 75.3409 18.3329 75.5398 18.7259C75.7434 19.1188 76.0298 19.4219 76.3991 19.6349C76.7685 19.848 77.2064 19.9545 77.7131 19.9545C78.0492 19.9545 78.357 19.9072 78.6364 19.8125C78.9157 19.7178 79.1548 19.5758 79.3537 19.3864C79.5526 19.197 79.7041 18.965 79.8082 18.6903L82.6065 18.875C82.4645 19.5473 82.1733 20.1345 81.733 20.6364C81.2973 21.1335 80.7339 21.5218 80.0426 21.8011C79.3561 22.0758 78.563 22.2131 77.6634 22.2131ZM93.7216 14.2017L90.9517 14.3722C90.9044 14.1354 90.8026 13.9223 90.6463 13.733C90.4901 13.5388 90.2841 13.3849 90.0284 13.2713C89.7775 13.1529 89.4768 13.0938 89.1264 13.0938C88.6577 13.0938 88.2623 13.1932 87.9403 13.392C87.6184 13.5862 87.4574 13.8466 87.4574 14.1733C87.4574 14.4337 87.5616 14.6539 87.7699 14.8338C87.9782 15.0137 88.3357 15.1581 88.8423 15.267L90.8168 15.6648C91.8774 15.8826 92.6681 16.233 93.1889 16.7159C93.7098 17.1989 93.9702 17.8333 93.9702 18.6193C93.9702 19.3343 93.7595 19.9616 93.3381 20.5014C92.9214 21.0412 92.3485 21.4626 91.6193 21.7656C90.8949 22.0639 90.0592 22.2131 89.1122 22.2131C87.6681 22.2131 86.5175 21.9124 85.6605 21.3111C84.8082 20.705 84.3087 19.8812 84.1619 18.8395L87.1378 18.6832C87.2277 19.1236 87.4455 19.4598 87.7912 19.6918C88.1368 19.919 88.5795 20.0327 89.1193 20.0327C89.6496 20.0327 90.0758 19.9309 90.3977 19.7273C90.7244 19.5189 90.8902 19.2514 90.8949 18.9247C90.8902 18.6501 90.7741 18.4252 90.5469 18.25C90.3196 18.0701 89.9692 17.9328 89.4957 17.8381L87.6065 17.4616C86.5412 17.2486 85.7481 16.8793 85.2273 16.3537C84.7112 15.8281 84.4531 15.1581 84.4531 14.3438C84.4531 13.643 84.6425 13.0393 85.0213 12.5327C85.4048 12.026 85.9422 11.6354 86.6335 11.3608C87.3295 11.0862 88.1439 10.9489 89.0767 10.9489C90.4545 10.9489 91.5388 11.2401 92.3295 11.8224C93.125 12.4048 93.589 13.1979 93.7216 14.2017Z" fill="white"/>
</g>
<path d="M100.643 25V6.09091H108.214C109.606 6.09091 110.766 6.29711 111.695 6.70952C112.625 7.12192 113.323 7.69437 113.791 8.42685C114.259 9.15317 114.493 9.99029 114.493 10.9382C114.493 11.6768 114.345 12.3262 114.05 12.8864C113.754 13.4403 113.348 13.8958 112.831 14.2528C112.32 14.6037 111.735 14.853 111.077 15.0007V15.1854C111.797 15.2161 112.471 15.4193 113.099 15.7947C113.733 16.1702 114.247 16.6965 114.641 17.3736C115.035 18.0445 115.232 18.8447 115.232 19.7741C115.232 20.7775 114.982 21.6731 114.484 22.4609C113.991 23.2427 113.262 23.8613 112.295 24.3168C111.329 24.7723 110.138 25 108.722 25H100.643ZM104.641 21.7315H107.901C109.015 21.7315 109.827 21.5192 110.338 21.0945C110.849 20.6636 111.104 20.0911 111.104 19.3771C111.104 18.8539 110.978 18.3923 110.726 17.9922C110.473 17.5921 110.113 17.2782 109.646 17.0504C109.184 16.8227 108.633 16.7088 107.993 16.7088H104.641V21.7315ZM104.641 14.0036H107.605C108.153 14.0036 108.639 13.9081 109.064 13.7173C109.495 13.5204 109.833 13.2434 110.08 12.8864C110.332 12.5294 110.458 12.1016 110.458 11.603C110.458 10.9197 110.215 10.3688 109.729 9.95028C109.249 9.53172 108.565 9.32244 107.679 9.32244H104.641V14.0036ZM126.854 18.9616V10.8182H130.787V25H127.01V22.424H126.863C126.543 23.255 126.01 23.9228 125.265 24.4276C124.527 24.9323 123.625 25.1847 122.56 25.1847C121.612 25.1847 120.778 24.9692 120.058 24.5384C119.338 24.1075 118.775 23.495 118.368 22.701C117.968 21.907 117.765 20.956 117.759 19.848V10.8182H121.692V19.1463C121.698 19.9834 121.923 20.6451 122.366 21.1314C122.809 21.6177 123.403 21.8608 124.148 21.8608C124.622 21.8608 125.065 21.7531 125.478 21.5376C125.89 21.3161 126.223 20.9898 126.475 20.5589C126.733 20.1281 126.86 19.5956 126.854 18.9616ZM141.476 10.8182V13.7727H132.936V10.8182H141.476ZM134.875 7.42045H138.808V20.642C138.808 21.0052 138.863 21.2884 138.974 21.4915C139.085 21.6884 139.239 21.8269 139.436 21.907C139.639 21.987 139.873 22.027 140.137 22.027C140.322 22.027 140.507 22.0116 140.691 21.9808C140.876 21.9439 141.018 21.9162 141.116 21.8977L141.735 24.8246C141.538 24.8861 141.261 24.9569 140.904 25.0369C140.547 25.1231 140.113 25.1754 139.602 25.1939C138.654 25.2308 137.823 25.1046 137.109 24.8153C136.401 24.526 135.85 24.0767 135.456 23.4673C135.062 22.858 134.868 22.0885 134.875 21.1591V7.42045ZM151.582 10.8182V13.7727H143.041V10.8182H151.582ZM144.98 7.42045H148.913V20.642C148.913 21.0052 148.969 21.2884 149.08 21.4915C149.19 21.6884 149.344 21.8269 149.541 21.907C149.744 21.987 149.978 22.027 150.243 22.027C150.428 22.027 150.612 22.0116 150.797 21.9808C150.982 21.9439 151.123 21.9162 151.222 21.8977L151.84 24.8246C151.643 24.8861 151.366 24.9569 151.009 25.0369C150.652 25.1231 150.218 25.1754 149.707 25.1939C148.759 25.2308 147.929 25.1046 147.214 24.8153C146.507 24.526 145.956 24.0767 145.562 23.4673C145.168 22.858 144.974 22.0885 144.98 21.1591V7.42045ZM160.399 25.277C158.965 25.277 157.725 24.9723 156.678 24.3629C155.638 23.7474 154.835 22.8918 154.268 21.7962C153.702 20.6944 153.419 19.4171 153.419 17.9645C153.419 16.4995 153.702 15.2192 154.268 14.1236C154.835 13.0218 155.638 12.1662 156.678 11.5568C157.725 10.9413 158.965 10.6335 160.399 10.6335C161.833 10.6335 163.071 10.9413 164.111 11.5568C165.157 12.1662 165.964 13.0218 166.53 14.1236C167.096 15.2192 167.379 16.4995 167.379 17.9645C167.379 19.4171 167.096 20.6944 166.53 21.7962C165.964 22.8918 165.157 23.7474 164.111 24.3629C163.071 24.9723 161.833 25.277 160.399 25.277ZM160.418 22.2301C161.07 22.2301 161.615 22.0455 162.052 21.6761C162.489 21.3007 162.818 20.7898 163.04 20.1435C163.268 19.4972 163.381 18.7616 163.381 17.9368C163.381 17.112 163.268 16.3764 163.04 15.7301C162.818 15.0838 162.489 14.5729 162.052 14.1974C161.615 13.822 161.07 13.6342 160.418 13.6342C159.759 13.6342 159.205 13.822 158.756 14.1974C158.313 14.5729 157.977 15.0838 157.749 15.7301C157.528 16.3764 157.417 17.112 157.417 17.9368C157.417 18.7616 157.528 19.4972 157.749 20.1435C157.977 20.7898 158.313 21.3007 158.756 21.6761C159.205 22.0455 159.759 22.2301 160.418 22.2301ZM173.87 16.8011V25H169.937V10.8182H173.685V13.3203H173.852C174.165 12.4955 174.692 11.843 175.43 11.3629C176.169 10.8767 177.065 10.6335 178.117 10.6335C179.102 10.6335 179.961 10.849 180.693 11.2798C181.426 11.7107 181.995 12.3262 182.401 13.1264C182.808 13.9205 183.011 14.8684 183.011 15.9702V25H179.077V16.6719C179.084 15.804 178.862 15.1269 178.413 14.6406C177.963 14.1482 177.345 13.902 176.557 13.902C176.027 13.902 175.56 14.0159 175.153 14.2436C174.753 14.4714 174.439 14.8037 174.212 15.2408C173.99 15.6716 173.876 16.1918 173.87 16.8011ZM197.91 14.8622L194.309 15.0838C194.248 14.776 194.116 14.4991 193.912 14.2528C193.709 14.0005 193.442 13.8004 193.109 13.6527C192.783 13.4988 192.392 13.4219 191.937 13.4219C191.327 13.4219 190.813 13.5511 190.395 13.8097C189.976 14.062 189.767 14.4006 189.767 14.8253C189.767 15.1638 189.902 15.45 190.173 15.6839C190.444 15.9179 190.909 16.1056 191.567 16.2472L194.134 16.7642C195.513 17.0473 196.541 17.5028 197.218 18.1307C197.895 18.7585 198.233 19.5833 198.233 20.6051C198.233 21.5346 197.96 22.3501 197.412 23.0518C196.87 23.7536 196.125 24.3014 195.177 24.6953C194.236 25.0831 193.149 25.277 191.918 25.277C190.041 25.277 188.545 24.8861 187.431 24.1044C186.323 23.3165 185.674 22.2455 185.483 20.8913L189.351 20.6882C189.468 21.2607 189.751 21.6977 190.201 21.9993C190.65 22.2947 191.226 22.4425 191.927 22.4425C192.617 22.4425 193.171 22.3101 193.589 22.0455C194.014 21.7746 194.229 21.4268 194.236 21.0021C194.229 20.6451 194.079 20.3527 193.783 20.125C193.488 19.8911 193.032 19.7126 192.417 19.5895L189.961 19.1001C188.576 18.8232 187.545 18.343 186.868 17.6598C186.197 16.9766 185.861 16.1056 185.861 15.0469C185.861 14.1359 186.108 13.3511 186.6 12.6925C187.099 12.0339 187.797 11.526 188.696 11.169C189.601 10.812 190.659 10.6335 191.872 10.6335C193.663 10.6335 195.073 11.0121 196.101 11.7692C197.135 12.5263 197.738 13.5573 197.91 14.8622Z" fill="#8257E5"/>
<path d="M16 28C22.6274 28 28 22.6274 28 16C28 9.37258 22.6274 4 16 4C9.37258 4 4 9.37258 4 16C4 22.6274 9.37258 28 16 28Z" stroke="#8257E5" stroke-width="2" stroke-miterlimit="10"/>
<path d="M14.5 11.5L19.5 16L14.5 20.5" stroke="#8257E5" stroke-width="2" stroke-linecap="round" stroke-linejoin="round"/>
<defs>
<filter id="filter0_d_264_131" x="31.7102" y="3.45454" width="66.2599" height="26.6364" filterUnits="userSpaceOnUse" color-interpolation-filters="sRGB">
<feFlood flood-opacity="0" result="BackgroundImageFix"/>
<feColorMatrix in="SourceAlpha" type="matrix" values="0 0 0 0 0 0 0 0 0 0 0 0 0 0 0 0 0 0 127 0" result="hardAlpha"/>
<feOffset/>
<feGaussianBlur stdDeviation="2"/>
<feComposite in2="hardAlpha" operator="out"/>
<feColorMatrix type="matrix" values="0 0 0 0 0 0 0 0 0 0 0 0 0 0 0 0 0 0 0.75 0"/>
<feBlend mode="normal" in2="BackgroundImageFix" result="effect1_dropShadow_264_131"/>
<feBlend mode="normal" in="SourceGraphic" in2="effect1_dropShadow_264_131" result="shape"/>
</filter>
</defs>
</svg>
